{
  "asset": {
    "version": "2.0",
    "generator": "THREE.GLTFExporter r164"
  },
  "scenes": [
    {
      "name": "Scene",
      "nodes": [
        1
      ]
    }
  ],
  "scene": 0,
  "nodes": [
    {
      "matrix": [
        -0.1805191452505599,
        0,
        0.9835714708133858,
        0,
        0,
        1,
        0,
        0,
        -0.9835714708133858,
        0,
        -0.1805191452505599,
        0,
        0.08,
        0,
        0,
        1
      ],
      "name": "mesh_0",
      "mesh": 0
    },
    {
      "name": "model1.glb",
      "children": [
        0
      ]
    }
  ],
  "bufferViews": [
    {
      "buffer": 0,
      "byteOffset": 0,
      "byteLength": 324012,
      "target": 34962,
      "byteStride": 12
    },
    {
      "buffer": 0,
      "byteOffset": 324012,
      "byteLength": 324012,
      "target": 34962,
      "byteStride": 12
    },
    {
      "buffer": 0,
      "byteOffset": 648024,
      "byteLength": 216008,
      "target": 34962,
      "byteStride": 8
    },
    {
      "buffer": 0,
      "byteOffset": 864032,
      "byteLength": 590784,
      "target": 34963
    }
  ],
  "buffers": [
    {
      "byteLength": 1454816,
      "uri": "data:application/octet-stream;base64,"
    }
  ],
  "accessors": [
    {
      "bufferView": 0,
      "componentType": 5126,
      "count": 27001,
      "max": [
        0.25143900513648987,
        0.5999999642372131,
        0.39924386143684387
      ],
      "min": [
        -0.25143900513648987,
        -0.5999999642372131,
        -0.39924386143684387
      ],
      "type": "VEC3"
    },
    {
      "bufferView": 1,
      "componentType": 5126,
      "count": 27001,
      "max": [
        0.9999174475669861,
        0.9999514818191528,
        0.9999938607215881
      ],
      "min": [
        -0.999979555606842,
        -0.9999998807907104,
        -0.9999895691871643
      ],
      "type": "VEC3"
    },
    {
      "bufferView": 2,
      "componentType": 5126,
      "count": 27001,
      "max": [
        0.95703125,
        1
      ],
      "min": [
        0,
        0
      ],
      "type": "VEC2"
    },
    {
      "bufferView": 3,
      "componentType": 5125,
      "count": 147696,
      "max": [
        27000
      ],
      "min": [
        0
      ],
      "type": "SCALAR"
    }
  ],
  "materials": [
    {
      "pbrMetallicRoughness": {
        "metallicFactor": 0,
        "roughnessFactor": 0.8,
        "baseColorTexture": {
          "index": 0,
          "texCoord": 0
        }
      },
      "doubleSided": true
    }
  ],
  "textures": [
    {
      "sampler": 0,
      "source": 0
    }
  ],
  "samplers": [
    {
      "magFilter": 9729,
      "minFilter": 9987,
      "wrapS": 10497,
      "wrapT": 10497
    }
  ],
  "images": [
    {
      "mimeType": "image/jpeg",
      "uri": "data:image/jpeg;base64,"
    }
  ],
  "meshes": [
    {
      "primitives": [
        {
          "mode": 4,
          "attributes": {
            "POSITION": 0,
            "NORMAL": 1,
            "TEXCOORD_0": 2
          },
          "indices": 3,
          "material": 0
        }
      ]
    }
  ]
}