<svg version="1.1" id="Layer_1" xmlns="http://www.w3.org/2000/svg" xmlns:xlink="http://www.w3.org/1999/xlink" x="0px" y="0px"
	 width="100%" viewBox="0 0 1024 1024" enable-background="new 0 0 1024 1024" xml:space="preserve">
<path fill="#001226" opacity="1.000000" stroke="none" 
	d="
M577.000000,1025.000000 
	C384.666656,1025.000000 192.833328,1025.000000 1.000000,1025.000000 
	C1.000000,683.666687 1.000000,342.333344 1.000000,1.000000 
	C342.333344,1.000000 683.666687,1.000000 1025.000000,1.000000 
	C1025.000000,342.333344 1025.000000,683.666687 1025.000000,1025.000000 
	C875.833313,1025.000000 726.666687,1025.000000 577.000000,1025.000000 
M816.500000,2.068223 
	C688.343323,2.068534 560.186646,2.068464 432.029938,2.069256 
	C291.707550,2.070122 151.385132,2.070540 11.062739,2.076074 
	C2.295801,2.076420 2.097723,2.293462 2.067466,11.028610 
	C2.065734,11.528566 2.066402,12.028531 2.066363,12.528492 
	C2.040443,344.169312 2.014325,675.810120 1.993109,1007.450928 
	C1.992960,1009.783325 1.920238,1012.128052 2.125355,1014.445496 
	C2.557893,1019.332458 6.668270,1023.451599 11.555464,1023.872925 
	C14.039122,1024.087036 16.550835,1024.006958 19.049860,1024.006958 
	C259.531158,1024.011719 500.012421,1024.012085 740.493713,1024.010864 
	C832.153198,1024.010376 923.812744,1024.008911 1015.472229,1023.995483 
	C1023.508423,1023.994324 1023.949951,1023.511292 1024.001465,1015.505066 
	C1024.005737,1014.838440 1024.004395,1014.171875 1024.004272,1013.505249 
	C1023.975220,679.531250 1023.946289,345.557312 1023.915405,11.583343 
	C1023.914490,2.108864 1023.890503,2.077801 1014.484619,2.076797 
	C948.823059,2.069787 883.161560,2.070408 816.500000,2.068223 
z"/>
<path fill="#000000" opacity="1.000000" stroke="none" 
	d="
M817.000000,2.068405 
	C883.161560,2.070408 948.823059,2.069787 1014.484619,2.076797 
	C1023.890503,2.077801 1023.914490,2.108864 1023.915405,11.583343 
	C1023.946289,345.557312 1023.975220,679.531250 1024.004272,1013.505249 
	C1024.004395,1014.171875 1024.005737,1014.838440 1024.001465,1015.505066 
	C1023.949951,1023.511292 1023.508423,1023.994324 1015.472229,1023.995483 
	C923.812744,1024.008911 832.153198,1024.010376 740.493713,1024.010864 
	C500.012421,1024.012085 259.531158,1024.011719 19.049860,1024.006958 
	C16.550835,1024.006958 14.039122,1024.087036 11.555464,1023.872925 
	C6.668270,1023.451599 2.557893,1019.332458 2.125355,1014.445496 
	C1.920238,1012.128052 1.992960,1009.783325 1.993109,1007.450928 
	C2.014325,675.810120 2.040443,344.169312 2.066363,12.528492 
	C2.066402,12.028531 2.065734,11.528566 2.067466,11.028610 
	C2.097723,2.293462 2.295801,2.076420 11.062739,2.076074 
	C151.385132,2.070540 291.707550,2.070122 432.029938,2.069256 
	C560.186646,2.068464 688.343323,2.068534 817.000000,2.068405 
M666.087280,604.240356 
	C666.061523,554.925232 666.030090,505.610107 666.037231,456.294983 
	C666.037476,454.789917 666.440979,453.284912 666.802734,450.758545 
	C672.352234,455.765289 677.148376,459.839783 681.659302,464.208710 
	C696.132812,478.226746 710.474670,492.380737 724.958923,506.387573 
	C726.127991,507.518097 727.995361,507.926605 729.538208,508.670624 
	C730.019470,506.985809 730.899719,505.305298 730.917786,503.615509 
	C731.042419,491.954437 730.889893,480.290192 731.040405,468.629700 
	C731.096008,464.320374 729.660767,461.028900 726.585632,458.004150 
	C714.233398,445.853973 702.033752,433.548523 689.793091,421.285095 
	C684.725464,416.208038 684.757324,415.857849 689.571594,410.921692 
	C701.898804,398.282288 714.321655,385.732025 726.413513,372.870880 
	C728.627258,370.516388 730.626892,366.903076 730.730774,363.804016 
	C731.199463,349.824921 730.926514,335.821716 730.975769,321.827393 
	C730.989685,317.888489 729.193237,316.002960 725.223572,316.026337 
	C717.226929,316.073395 709.228638,316.116089 701.233459,315.997040 
	C696.750916,315.930328 694.938416,317.986969 694.991699,322.370422 
	C695.093018,330.699158 695.314270,339.050140 694.805054,347.350128 
	C694.619629,350.373077 693.135498,353.838562 691.131287,356.128387 
	C685.436157,362.635223 679.172180,368.644653 673.121338,374.839417 
	C671.589355,376.407837 670.017456,377.937256 667.488708,380.455902 
	C666.929871,371.930145 666.197693,364.862640 666.062317,357.783722 
	C665.829834,345.625793 666.015930,333.460236 665.888489,321.299316 
	C665.874451,319.955536 664.962158,318.621124 664.466492,317.282410 
	C663.173523,317.837616 661.576721,318.081329 660.636414,318.998230 
	C654.196472,325.278351 648.197449,332.042694 641.471802,337.989899 
	C632.769653,345.684784 630.687378,354.841248 630.747498,366.276733 
	C631.207581,453.742401 630.999634,541.211609 631.001587,628.679749 
	C631.001648,630.845520 631.072937,633.012146 631.029602,635.176819 
	C630.950623,639.118713 632.813721,640.998230 636.780884,640.973572 
	C644.943909,640.922852 653.107788,640.922852 661.270935,640.970215 
	C665.269043,640.993408 667.071045,639.035461 666.963196,635.125122 
	C666.687927,625.145142 666.421143,615.164917 666.087280,604.240356 
M494.500000,316.000000 
	C444.012268,316.001678 393.524536,315.993256 343.036804,316.016418 
	C335.761505,316.019775 335.025208,316.765778 335.016357,324.066254 
	C334.985352,349.726685 335.000763,375.387146 335.000305,401.047607 
	C334.999939,421.875916 334.985229,442.704224 335.011841,463.532501 
	C335.021881,471.392578 335.626617,471.957977 343.635315,471.992310 
	C349.800385,472.018707 355.965698,472.015289 362.130798,471.993225 
	C370.452087,471.963440 370.986115,471.464142 370.990570,463.265991 
	C371.009125,428.940948 370.989929,394.615936 371.011475,360.290894 
	C371.016693,351.961487 371.909637,350.950012 380.132324,351.035706 
	C403.776764,351.282074 427.420502,351.977875 451.063232,351.924408 
	C494.702515,351.825745 538.342041,351.405731 581.977112,350.805603 
	C585.227905,350.760864 589.151794,348.951385 591.545105,346.679504 
	C599.022095,339.581757 605.998535,331.945221 612.973450,324.338257 
	C614.665955,322.492401 615.607422,319.957855 616.894226,317.739990 
	C614.420288,317.160767 611.947754,316.083893 609.472229,316.076874 
	C571.481750,315.969116 533.490784,316.000763 494.500000,316.000000 
M371.000000,525.500061 
	C370.988312,520.002319 370.905670,514.503540 370.987885,509.007141 
	C371.051086,504.783173 369.068329,502.957550 364.903503,503.008209 
	C358.240692,503.089294 351.575958,502.997864 344.912018,503.003784 
	C335.212769,503.012390 335.005219,503.204254 335.004150,512.687439 
	C334.997467,572.830139 334.997803,632.972839 335.003510,693.115540 
	C335.004425,702.782532 335.210876,702.994690 344.714996,702.995972 
	C398.526886,703.003052 452.338776,702.999939 506.150665,702.998962 
	C507.983215,702.998901 509.819244,702.905457 511.647583,702.988831 
	C516.043884,703.189392 518.083008,701.218262 518.003174,696.748474 
	C517.887146,690.253357 518.007324,683.754272 517.994263,677.257019 
	C517.976379,668.377625 517.616760,668.007996 508.657104,668.005737 
	C466.174042,667.994934 423.690948,668.004517 381.207886,667.995361 
	C371.369965,667.993225 371.007538,667.639221 371.005371,657.947632 
	C370.995544,614.131775 371.000427,570.315857 371.000000,525.500061 
M727.551697,541.070190 
	C719.426025,532.938416 711.371704,524.733093 703.120483,516.730774 
	C701.241638,514.908569 698.681580,513.788757 696.435059,512.345642 
	C695.957153,514.868347 695.067200,517.390381 695.062500,519.913940 
	C694.977722,565.896667 695.005249,611.879639 694.993164,657.862549 
	C694.990845,666.533936 694.548157,666.986389 686.036743,666.991943 
	C659.380005,667.009277 632.722534,666.883850 606.066711,667.043091 
	C589.922363,667.139465 573.781555,667.764404 557.636963,667.929016 
	C552.628479,667.980164 550.840027,670.173584 550.967346,674.956909 
	C551.153564,681.949280 550.941162,688.951477 551.046082,695.947266 
	C551.133667,701.785400 552.259155,702.951477 558.210632,702.956055 
	C613.523376,702.998840 668.836121,702.998596 724.148865,702.961060 
	C729.921387,702.957092 730.953247,701.947266 730.958130,696.248840 
	C731.000244,647.433716 731.027466,598.618347 730.854553,549.803833 
	C730.844910,547.067261 729.032776,544.337158 727.551697,541.070190 
M564.001953,430.496674 
	C561.872986,432.834320 559.739380,435.167755 557.615784,437.510284 
	C547.666992,448.484894 537.691833,459.435791 527.796143,470.458160 
	C525.548706,472.961548 523.631775,473.266449 521.176575,470.704102 
	C509.883789,458.918274 498.444855,447.272278 487.176819,435.463043 
	C470.053864,417.517731 453.074463,399.435089 435.886780,381.552338 
	C434.290497,379.891510 431.674469,378.379974 429.466980,378.283417 
	C420.653442,377.897980 411.814117,378.072876 402.984528,378.098724 
	C400.051147,378.107330 398.551117,379.592773 398.054504,382.606964 
	C396.814667,390.132019 398.376923,396.156372 404.146820,401.905945 
	C420.890900,418.590973 437.064331,435.850433 453.389679,452.953217 
	C460.975830,460.900635 468.350739,469.049316 475.899841,477.032593 
	C490.541809,492.516632 505.191833,507.993774 519.944458,523.372131 
	C524.040100,527.641479 525.837891,527.594116 529.931702,523.491821 
	C533.219666,520.196960 536.167664,516.565979 539.377258,513.189392 
	C559.679688,491.830597 579.949768,470.440247 600.400513,449.224091 
	C603.671387,445.830811 605.119690,442.302277 605.052917,437.663055 
	C604.880310,425.668304 605.005432,413.669312 604.994080,401.672028 
	C604.991699,399.173706 605.085327,396.657623 604.828491,394.181488 
	C604.471985,390.743927 602.705200,389.747131 599.781311,391.941345 
	C598.590088,392.835236 597.515930,393.913666 596.505493,395.015411 
	C585.823792,406.662079 575.165771,418.330444 564.001953,430.496674 
M398.000000,474.500000 
	C398.000000,506.985870 397.998383,539.471741 398.000549,571.957642 
	C398.001923,592.615295 397.974640,613.273071 398.034576,633.930542 
	C398.052124,639.974365 399.016571,640.896179 405.032104,640.967773 
	C411.861481,641.049072 418.692993,641.037903 425.522766,640.977295 
	C432.118317,640.918762 432.954346,640.090088 432.977905,633.376282 
	C433.028778,618.882751 432.999969,604.388977 432.999542,589.895264 
	C432.998444,550.579041 433.078644,511.262390 432.850983,471.947510 
	C432.830414,468.393463 431.781372,464.018311 429.559845,461.453827 
	C421.830933,452.531555 413.442200,444.172577 405.128632,435.773376 
	C403.783203,434.414062 401.544586,433.938843 399.718872,433.054962 
	C399.151978,434.875092 398.118408,436.689026 398.094086,438.516327 
	C397.938965,450.175903 398.006073,461.838440 398.000000,474.500000 
M561.999634,560.496338 
	C568.783752,565.346130 570.374695,571.995605 570.150940,580.093506 
	C569.663757,597.724915 569.978638,615.379211 570.017456,633.024048 
	C570.033325,640.246399 570.773804,640.939453 578.113403,640.987427 
	C584.105774,641.026611 590.098633,641.014465 596.091187,640.993774 
	C604.445068,640.964844 604.955566,640.467224 604.993103,632.321411 
	C605.017700,626.994690 604.999939,621.667908 604.999878,616.341125 
	C604.999390,575.890991 605.031128,535.440796 604.923767,494.990875 
	C604.916748,492.340973 603.844299,489.693878 603.267456,487.045502 
	C600.853516,488.522247 598.043762,489.602356 596.095886,491.546173 
	C588.680847,498.945862 581.516541,506.598389 574.311523,514.206543 
	C567.905334,520.971069 561.439453,527.686523 555.245850,534.642517 
	C550.818909,539.614380 550.731628,547.386780 554.644348,552.066833 
	C556.884277,554.746033 559.211548,557.352356 561.999634,560.496338 
M494.959229,635.185425 
	C494.974976,610.530823 494.897827,585.875366 495.122864,561.222656 
	C495.151276,558.108765 496.053162,554.518677 497.786163,551.999207 
	C502.216461,545.558167 502.384308,539.321350 496.877533,533.506409 
	C486.804382,522.869690 476.596222,512.358643 466.305939,501.931885 
	C464.929016,500.536682 462.746979,499.936096 460.937775,498.967560 
	C460.296295,500.904022 459.099762,502.839111 459.094910,504.777161 
	C458.987518,547.756104 459.011475,590.735352 459.013367,633.714600 
	C459.013367,634.380615 459.062225,635.046509 459.065643,635.712585 
	C459.083527,639.198914 460.844604,640.931824 464.317047,640.932495 
	C472.812164,640.934143 481.307343,640.941406 489.802429,640.920837 
	C492.990173,640.913147 494.790466,639.370789 494.959229,635.185425 
z"/>
<path fill="#0F0F0F" opacity="1.000000" stroke="none" 
	d="
M666.119080,604.712524 
	C666.421143,615.164917 666.687927,625.145142 666.963196,635.125122 
	C667.071045,639.035461 665.269043,640.993408 661.270935,640.970215 
	C653.107788,640.922852 644.943909,640.922852 636.780884,640.973572 
	C632.813721,640.998230 630.950623,639.118713 631.029602,635.176819 
	C631.072937,633.012146 631.001648,630.845520 631.001587,628.679749 
	C630.999634,541.211609 631.207581,453.742401 630.747498,366.276733 
	C630.687378,354.841248 632.769653,345.684784 641.471802,337.989899 
	C648.197449,332.042694 654.196472,325.278351 660.636414,318.998230 
	C661.576721,318.081329 663.173523,317.837616 664.466553,317.282379 
	C664.962158,318.621124 665.874451,319.955536 665.888489,321.299316 
	C666.015930,333.460236 665.829834,345.625793 666.062317,357.783722 
	C666.197693,364.862640 666.929871,371.930145 667.488708,380.455902 
	C670.017456,377.937256 671.589355,376.407837 673.121338,374.839417 
	C679.172180,368.644653 685.436157,362.635223 691.131287,356.128387 
	C693.135498,353.838562 694.619629,350.373077 694.805054,347.350128 
	C695.314270,339.050140 695.093018,330.699158 694.991699,322.370422 
	C694.938416,317.986969 696.750916,315.930328 701.233459,315.997040 
	C709.228638,316.116089 717.226929,316.073395 725.223572,316.026337 
	C729.193237,316.002960 730.989685,317.888489 730.975769,321.827393 
	C730.926514,335.821716 731.199463,349.824921 730.730774,363.804016 
	C730.626892,366.903076 728.627258,370.516388 726.413513,372.870880 
	C714.321655,385.732025 701.898804,398.282288 689.571594,410.921692 
	C684.757324,415.857849 684.725464,416.208038 689.793091,421.285095 
	C702.033752,433.548523 714.233398,445.853973 726.585632,458.004150 
	C729.660767,461.028900 731.096008,464.320374 731.040405,468.629700 
	C730.889893,480.290192 731.042419,491.954437 730.917786,503.615509 
	C730.899719,505.305298 730.019470,506.985809 729.538208,508.670624 
	C727.995361,507.926605 726.127991,507.518097 724.958923,506.387573 
	C710.474670,492.380737 696.132812,478.226746 681.659302,464.208710 
	C677.148376,459.839783 672.352234,455.765289 666.802734,450.758545 
	C666.440979,453.284912 666.037476,454.789917 666.037231,456.294983 
	C666.030090,505.610107 666.061523,554.925232 666.119080,604.712524 
z"/>
<path fill="#0F0F0F" opacity="1.000000" stroke="none" 
	d="
M495.000000,316.000000 
	C533.490784,316.000763 571.481750,315.969116 609.472229,316.076874 
	C611.947754,316.083893 614.420288,317.160767 616.894165,317.739990 
	C615.607422,319.957855 614.665955,322.492401 612.973450,324.338257 
	C605.998535,331.945221 599.022095,339.581757 591.545105,346.679504 
	C589.151794,348.951385 585.227905,350.760864 581.977112,350.805603 
	C538.342041,351.405731 494.702515,351.825745 451.063232,351.924408 
	C427.420502,351.977875 403.776764,351.282074 380.132324,351.035706 
	C371.909637,350.950012 371.016693,351.961487 371.011475,360.290894 
	C370.989929,394.615936 371.009125,428.940948 370.990570,463.265991 
	C370.986115,471.464142 370.452087,471.963440 362.130798,471.993225 
	C355.965698,472.015289 349.800385,472.018707 343.635315,471.992310 
	C335.626617,471.957977 335.021881,471.392578 335.011841,463.532501 
	C334.985229,442.704224 334.999939,421.875916 335.000305,401.047607 
	C335.000763,375.387146 334.985352,349.726685 335.016357,324.066254 
	C335.025208,316.765778 335.761505,316.019775 343.036804,316.016418 
	C393.524536,315.993256 444.012268,316.001678 495.000000,316.000000 
z"/>
<path fill="#0F0F0F" opacity="1.000000" stroke="none" 
	d="
M371.000000,526.000000 
	C371.000427,570.315857 370.995544,614.131775 371.005371,657.947632 
	C371.007538,667.639221 371.369965,667.993225 381.207886,667.995361 
	C423.690948,668.004517 466.174042,667.994934 508.657104,668.005737 
	C517.616760,668.007996 517.976379,668.377625 517.994263,677.257019 
	C518.007324,683.754272 517.887146,690.253357 518.003174,696.748474 
	C518.083008,701.218262 516.043884,703.189392 511.647583,702.988831 
	C509.819244,702.905457 507.983215,702.998901 506.150665,702.998962 
	C452.338776,702.999939 398.526886,703.003052 344.714996,702.995972 
	C335.210876,702.994690 335.004425,702.782532 335.003510,693.115540 
	C334.997803,632.972839 334.997467,572.830139 335.004150,512.687439 
	C335.005219,503.204254 335.212769,503.012390 344.912018,503.003784 
	C351.575958,502.997864 358.240692,503.089294 364.903503,503.008209 
	C369.068329,502.957550 371.051086,504.783173 370.987885,509.007141 
	C370.905670,514.503540 370.988312,520.002319 371.000000,526.000000 
z"/>
<path fill="#0F0F0F" opacity="1.000000" stroke="none" 
	d="
M727.805664,541.337097 
	C729.032776,544.337158 730.844910,547.067261 730.854553,549.803833 
	C731.027466,598.618347 731.000244,647.433716 730.958130,696.248840 
	C730.953247,701.947266 729.921387,702.957092 724.148865,702.961060 
	C668.836121,702.998596 613.523376,702.998840 558.210632,702.956055 
	C552.259155,702.951477 551.133667,701.785400 551.046082,695.947266 
	C550.941162,688.951477 551.153564,681.949280 550.967346,674.956909 
	C550.840027,670.173584 552.628479,667.980164 557.636963,667.929016 
	C573.781555,667.764404 589.922363,667.139465 606.066711,667.043091 
	C632.722534,666.883850 659.380005,667.009277 686.036743,666.991943 
	C694.548157,666.986389 694.990845,666.533936 694.993164,657.862549 
	C695.005249,611.879639 694.977722,565.896667 695.062500,519.913940 
	C695.067200,517.390381 695.957153,514.868347 696.435059,512.345642 
	C698.681580,513.788757 701.241638,514.908569 703.120483,516.730774 
	C711.371704,524.733093 719.426025,532.938416 727.805664,541.337097 
z"/>
<path fill="#0F0F0F" opacity="1.000000" stroke="none" 
	d="
M564.251587,430.244720 
	C575.165771,418.330444 585.823792,406.662079 596.505493,395.015411 
	C597.515930,393.913666 598.590088,392.835236 599.781311,391.941345 
	C602.705200,389.747131 604.471985,390.743927 604.828491,394.181488 
	C605.085327,396.657623 604.991699,399.173706 604.994080,401.672028 
	C605.005432,413.669312 604.880310,425.668304 605.052917,437.663055 
	C605.119690,442.302277 603.671387,445.830811 600.400513,449.224091 
	C579.949768,470.440247 559.679688,491.830597 539.377258,513.189392 
	C536.167664,516.565979 533.219666,520.196960 529.931702,523.491821 
	C525.837891,527.594116 524.040100,527.641479 519.944458,523.372131 
	C505.191833,507.993774 490.541809,492.516632 475.899841,477.032593 
	C468.350739,469.049316 460.975830,460.900635 453.389679,452.953217 
	C437.064331,435.850433 420.890900,418.590973 404.146820,401.905945 
	C398.376923,396.156372 396.814667,390.132019 398.054504,382.606964 
	C398.551117,379.592773 400.051147,378.107330 402.984528,378.098724 
	C411.814117,378.072876 420.653442,377.897980 429.466980,378.283417 
	C431.674469,378.379974 434.290497,379.891510 435.886780,381.552338 
	C453.074463,399.435089 470.053864,417.517731 487.176819,435.463043 
	C498.444855,447.272278 509.883789,458.918274 521.176575,470.704102 
	C523.631775,473.266449 525.548706,472.961548 527.796143,470.458160 
	C537.691833,459.435791 547.666992,448.484894 557.615784,437.510284 
	C559.739380,435.167755 561.872986,432.834320 564.251587,430.244720 
z"/>
<path fill="#0F0F0F" opacity="1.000000" stroke="none" 
	d="
M398.000000,474.000000 
	C398.006073,461.838440 397.938965,450.175903 398.094086,438.516327 
	C398.118408,436.689026 399.151978,434.875092 399.718872,433.054962 
	C401.544586,433.938843 403.783203,434.414062 405.128632,435.773376 
	C413.442200,444.172577 421.830933,452.531555 429.559845,461.453827 
	C431.781372,464.018311 432.830414,468.393463 432.850983,471.947510 
	C433.078644,511.262390 432.998444,550.579041 432.999542,589.895264 
	C432.999969,604.388977 433.028778,618.882751 432.977905,633.376282 
	C432.954346,640.090088 432.118317,640.918762 425.522766,640.977295 
	C418.692993,641.037903 411.861481,641.049072 405.032104,640.967773 
	C399.016571,640.896179 398.052124,639.974365 398.034576,633.930542 
	C397.974640,613.273071 398.001923,592.615295 398.000549,571.957642 
	C397.998383,539.471741 398.000000,506.985870 398.000000,474.000000 
z"/>
<path fill="#0F0F0F" opacity="1.000000" stroke="none" 
	d="
M561.749512,560.243896 
	C559.211548,557.352356 556.884277,554.746033 554.644348,552.066833 
	C550.731628,547.386780 550.818909,539.614380 555.245850,534.642517 
	C561.439453,527.686523 567.905334,520.971069 574.311523,514.206543 
	C581.516541,506.598389 588.680847,498.945862 596.095886,491.546173 
	C598.043762,489.602356 600.853516,488.522247 603.267456,487.045471 
	C603.844299,489.693878 604.916748,492.340973 604.923767,494.990875 
	C605.031128,535.440796 604.999390,575.890991 604.999878,616.341125 
	C604.999939,621.667908 605.017700,626.994690 604.993103,632.321411 
	C604.955566,640.467224 604.445068,640.964844 596.091187,640.993774 
	C590.098633,641.014465 584.105774,641.026611 578.113403,640.987427 
	C570.773804,640.939453 570.033325,640.246399 570.017456,633.024048 
	C569.978638,615.379211 569.663757,597.724915 570.150940,580.093506 
	C570.374695,571.995605 568.783752,565.346130 561.749512,560.243896 
z"/>
<path fill="#0F0F0F" opacity="1.000000" stroke="none" 
	d="
M494.934631,635.636230 
	C494.790466,639.370789 492.990173,640.913147 489.802429,640.920837 
	C481.307343,640.941406 472.812164,640.934143 464.317047,640.932495 
	C460.844604,640.931824 459.083527,639.198914 459.065643,635.712585 
	C459.062225,635.046509 459.013367,634.380615 459.013367,633.714600 
	C459.011475,590.735352 458.987518,547.756104 459.094910,504.777161 
	C459.099762,502.839111 460.296295,500.904022 460.937744,498.967560 
	C462.746979,499.936096 464.929016,500.536682 466.305939,501.931885 
	C476.596222,512.358643 486.804382,522.869690 496.877533,533.506409 
	C502.384308,539.321350 502.216461,545.558167 497.786163,551.999207 
	C496.053162,554.518677 495.151276,558.108765 495.122864,561.222656 
	C494.897827,585.875366 494.974976,610.530823 494.934631,635.636230 
z"/>
</svg>